<?xml version="1.0" standalone="no"?>
<!DOCTYPE svg PUBLIC "-//W3C//DTD SVG 20010904//EN"
 "http://www.w3.org/TR/2001/REC-SVG-20010904/DTD/svg10.dtd">
<svg version="1.0" xmlns="http://www.w3.org/2000/svg"
 width="658.000000pt" height="432.000000pt" viewBox="0 0 658.000000 432.000000"
 preserveAspectRatio="xMidYMid meet">

<g transform="translate(0.000000,432.000000) scale(0.100000,-0.100000)"
fill="#000000" stroke="none">
<path d="M0 2160 l0 -2160 3290 0 3290 0 0 2160 0 2160 -3290 0 -3290 0 0
-2160z m3321 1281 c34 -34 38 -78 13 -141 l-16 -40 -227 0 c-124 0 -241 -4
-259 -9 -17 -5 -32 -8 -32 -6 0 2 16 32 36 67 77 137 116 156 322 157 l134 1
29 -29z m390 -8 c48 -25 59 -37 100 -108 25 -44 45 -81 44 -83 -1 -1 -22 2
-46 7 -24 6 -108 11 -186 11 l-141 0 -45 78 c-24 42 -49 87 -56 100 l-12 22
144 0 c137 0 146 -1 198 -27z m-268 -197 c34 -70 43 -132 27 -182 -7 -22 -96
-185 -197 -364 -101 -179 -190 -345 -197 -369 l-13 -44 -21 31 c-72 100 -91
211 -51 287 12 22 107 192 211 378 142 251 193 335 202 327 7 -5 25 -34 39
-64z m390 -36 c64 -24 72 -32 126 -128 l41 -74 -43 9 c-23 4 -107 7 -187 5
l-145 -2 -20 37 c-12 21 -38 68 -59 106 l-38 67 136 0 c111 0 145 -4 189 -20z
m-553 4 c0 -3 -24 -48 -52 -100 l-53 -94 -237 0 c-130 0 -248 -4 -262 -10 -14
-5 -26 -6 -26 -1 0 14 75 124 104 152 55 55 73 59 309 59 119 0 217 -3 217 -6z
m304 -214 c33 -62 40 -116 23 -171 -8 -26 -89 -178 -181 -338 -152 -268 -166
-296 -166 -341 0 -27 4 -60 9 -74 10 -24 9 -24 -18 -15 -41 15 -106 73 -125
113 -9 19 -16 59 -16 93 0 74 10 95 229 478 95 165 175 313 178 328 l6 28 19
-28 c10 -15 29 -48 42 -73z m-622 -132 c62 -104 67 -114 53 -133 -41 -57 -77
-129 -83 -166 l-7 -43 -118 206 c-112 197 -125 226 -110 241 3 4 49 7 102 7
l96 0 67 -112z m897 -90 c120 -212 123 -224 70 -239 -33 -10 -152 -10 -165 -1
-6 4 -37 56 -69 115 l-57 108 12 60 c7 32 10 82 7 109 l-6 50 47 0 48 0 113
-202z m130 183 c108 -56 150 -183 97 -296 -26 -55 -56 -88 -72 -77 -8 6 -168
282 -213 370 -12 22 -11 22 69 22 60 0 90 -5 119 -19z m-1094 -465 c138 -235
259 -434 269 -442 18 -12 9 -14 -80 -14 -113 0 -155 17 -205 80 -32 41 -291
482 -325 555 -40 85 -28 151 39 223 17 18 36 31 42 29 5 -2 123 -196 260 -431z
m1089 -18 c-37 -75 -93 -136 -147 -162 -53 -26 -54 -26 -265 -24 l-212 3 56
98 55 97 227 1 c125 1 238 5 252 9 48 15 52 12 34 -22z m-167 -278 c-43 -77
-77 -114 -126 -140 -35 -17 -59 -20 -189 -20 -148 0 -150 0 -176 26 -31 32
-35 82 -10 144 l16 40 252 3 c138 1 254 3 258 5 4 1 -7 -25 -25 -58z m-1317
-556 l0 -156 39 35 c76 69 200 58 269 -23 53 -62 68 -188 33 -266 -59 -130
-209 -164 -308 -71 l-33 31 0 -37 c0 -36 -1 -37 -40 -37 l-40 0 0 340 0 340
40 0 40 0 0 -156z m-875 -94 c22 -11 43 -27 48 -35 13 -25 27 -17 27 15 0 28
2 30 41 30 l41 0 -4 -252 -3 -253 -27 -47 c-37 -61 -83 -89 -161 -95 -88 -7
-143 10 -194 62 -24 23 -43 50 -43 58 0 9 14 24 32 33 27 14 33 14 37 3 2 -8
18 -28 36 -46 61 -61 166 -53 212 16 18 27 23 48 23 98 l0 65 -30 -26 c-29
-24 -86 -46 -120 -46 -8 0 -32 5 -52 10 -107 30 -171 162 -137 283 12 45 72
115 114 133 45 20 115 17 160 -6z m570 -4 c54 -36 65 -70 65 -204 0 -124 8
-162 35 -162 10 0 15 -10 15 -30 0 -28 -2 -30 -38 -30 -41 0 -82 23 -82 46 0
10 -13 5 -41 -18 -37 -30 -47 -33 -108 -33 -77 0 -114 19 -130 67 -16 45 -13
79 8 114 23 38 71 61 161 78 104 20 124 47 77 102 -18 21 -32 27 -65 27 -47 0
-92 -25 -100 -55 -4 -17 -11 -19 -40 -15 -45 8 -47 11 -32 47 14 33 61 74 95
83 39 11 154 0 180 -17z m1044 14 c81 -23 135 -83 151 -170 22 -117 -28 -215
-132 -260 -97 -41 -211 -9 -272 78 -53 76 -48 212 11 283 55 65 156 94 242 69z
m496 -10 c26 -13 49 -34 61 -55 21 -39 20 -40 -23 -49 -26 -6 -32 -4 -38 14
-16 50 -131 65 -155 20 -26 -49 -4 -73 97 -102 100 -29 143 -67 143 -127 0
-91 -52 -135 -160 -136 -78 0 -133 24 -161 69 -23 38 -21 47 15 59 25 8 31 6
53 -22 61 -77 197 -49 168 36 -9 22 -22 31 -80 50 -127 41 -165 73 -165 138 0
99 136 158 245 105z m480 1 c22 -10 50 -28 62 -40 22 -21 58 -80 51 -86 -2 -1
-19 -5 -39 -9 -34 -6 -38 -4 -57 28 -15 25 -32 38 -60 47 -111 33 -196 -55
-179 -183 11 -79 77 -133 152 -124 31 3 48 14 77 46 35 39 41 42 73 36 41 -8
41 -10 16 -52 -90 -147 -320 -128 -387 31 -23 56 -22 151 4 200 55 107 183
154 287 106z m472 0 c68 -32 77 -54 83 -216 5 -133 6 -140 28 -150 15 -7 22
-18 22 -37 0 -24 -4 -28 -29 -28 -44 0 -82 18 -88 40 -5 19 -6 18 -37 -5 -101
-77 -239 -44 -253 62 -11 84 45 132 180 155 96 16 120 50 74 104 -32 37 -105
39 -142 4 -14 -13 -25 -30 -25 -38 0 -11 -8 -13 -36 -9 -20 3 -39 8 -42 11 -8
8 18 63 38 81 50 45 158 57 227 26z m551 -8 c54 -39 62 -72 62 -255 l0 -168
-45 0 -45 0 0 164 c0 141 -2 167 -18 186 -24 30 -93 38 -128 16 -44 -30 -54
-71 -54 -226 l0 -140 -40 0 -40 0 0 220 0 220 40 0 c37 0 40 -2 40 -27 0 -24
1 -25 18 -10 54 49 157 59 210 20z"/>
<path d="M2605 1483 c-85 -23 -128 -128 -90 -220 20 -49 43 -69 95 -84 39 -12
46 -11 86 10 79 42 105 142 60 230 -25 48 -96 79 -151 64z"/>
<path d="M1502 1474 c-125 -64 -83 -274 56 -274 55 0 94 23 121 70 26 46 27
94 3 139 -35 69 -115 98 -180 65z"/>
<path d="M2098 1300 c-88 -19 -108 -32 -108 -71 0 -32 31 -59 70 -59 57 0 125
71 118 124 l-3 23 -77 -17z"/>
<path d="M3103 1470 c-43 -26 -63 -58 -70 -117 -7 -60 21 -132 61 -158 99 -65
216 11 216 139 0 120 -112 194 -207 136z"/>
<path d="M4600 1303 c-96 -21 -134 -69 -90 -113 58 -58 180 12 180 105 0 28
-1 29 -90 8z"/>
</g>
</svg>
